<?xml version="1.0" encoding="utf-8"?>
<!-- Generator: Adobe Illustrator 27.3.1, SVG Export Plug-In . SVG Version: 6.00 Build 0)  -->
<svg version="1.1" id="Livello_1" xmlns="http://www.w3.org/2000/svg" xmlns:xlink="http://www.w3.org/1999/xlink" x="0px" y="0px"
	 viewBox="0 0 64 64" style="enable-background:new 0 0 64 64;" xml:space="preserve">
<path d="M8,6C6.7,6,5.6,6.8,5.2,8H4c-1.7,0-3,1.3-3,3v40c0,1.7,1.3,3,3,3h21.2c0.6,0,1.1,0.4,1.2,1c0.4,1.8,2,3,3.9,3h3.3
	c1.8,0,3.4-1.2,3.9-3c0.1-0.6,0.7-1,1.2-1H60c1.7,0,3-1.3,3-3V11c0-1.7-1.3-3-3-3h-1.2c-0.4-1.2-1.5-2-2.8-2H36c-1.6,0-3.1,0.8-4,2
	c-0.9-1.2-2.4-2-4-2H8z M8,8h20c1.7,0,3,1.3,3,3v34c0,0.6,0.4,1,1,1s1-0.4,1-1V11c0-1.7,1.3-3,3-3h20c0.6,0,1,0.4,1,1v38
	c0,0.6-0.4,1-1,1H36c-1.6,0-3.1,0.8-4,2c-0.9-1.2-2.4-2-4-2H8c-0.6,0-1-0.4-1-1V9C7,8.4,7.4,8,8,8z M4,10h1v37c0,1.7,1.3,3,3,3h20
	c1.7,0,3,1.3,3,3c0,0.6,0.4,1,1,1s1-0.4,1-1c0-1.7,1.3-3,3-3h20c1.7,0,3-1.3,3-3V10h1c0.6,0,1,0.4,1,1v40c0,0.6-0.4,1-1,1H38.8
	c-1.5,0-2.8,1-3.2,2.5c-0.2,0.9-1,1.5-1.9,1.5h-3.3c-0.9,0-1.7-0.6-1.9-1.5C28,53,26.7,52,25.2,52H4c-0.6,0-1-0.4-1-1V11
	C3,10.4,3.4,10,4,10z M12,14c-0.6,0-1,0.4-1,1s0.4,1,1,1h4c0.6,0,1-0.4,1-1s-0.4-1-1-1H12z M22,14c-0.6,0-1,0.4-1,1s0.4,1,1,1h1
	c0.6,0,1-0.4,1-1s-0.4-1-1-1H22z M26,14c-0.6,0-1,0.4-1,1s0.4,1,1,1h1c0.6,0,1-0.4,1-1s-0.4-1-1-1H26z M38,14c-0.6,0-1,0.4-1,1
	s0.4,1,1,1h4c0.6,0,1-0.4,1-1s-0.4-1-1-1H38z M52,14c-0.6,0-1,0.4-1,1s0.4,1,1,1h1c0.6,0,1-0.4,1-1s-0.4-1-1-1H52z M12,18
	c-0.6,0-1,0.4-1,1s0.4,1,1,1h6c0.6,0,1-0.4,1-1s-0.4-1-1-1H12z M22,18c-0.6,0-1,0.4-1,1s0.4,1,1,1h1c0.6,0,1-0.4,1-1s-0.4-1-1-1H22z
	 M26,18c-0.6,0-1,0.4-1,1s0.4,1,1,1h1c0.6,0,1-0.4,1-1s-0.4-1-1-1H26z M38,18c-0.6,0-1,0.4-1,1s0.4,1,1,1h6c0.6,0,1-0.4,1-1
	s-0.4-1-1-1H38z M48,18c-0.6,0-1,0.4-1,1s0.4,1,1,1h1c0.6,0,1-0.4,1-1s-0.4-1-1-1H48z M52,18c-0.6,0-1,0.4-1,1s0.4,1,1,1h1
	c0.6,0,1-0.4,1-1s-0.4-1-1-1H52z M12,24c-0.6,0-1,0.4-1,1s0.4,1,1,1h4c0.6,0,1-0.4,1-1s-0.4-1-1-1H12z M26,24c-0.6,0-1,0.4-1,1
	s0.4,1,1,1h1c0.6,0,1-0.4,1-1s-0.4-1-1-1H26z M38,24c-0.6,0-1,0.4-1,1s0.4,1,1,1h4c0.6,0,1-0.4,1-1s-0.4-1-1-1H38z M48,24
	c-0.6,0-1,0.4-1,1s0.4,1,1,1h1c0.6,0,1-0.4,1-1s-0.4-1-1-1H48z M52,24c-0.6,0-1,0.4-1,1s0.4,1,1,1h1c0.6,0,1-0.4,1-1s-0.4-1-1-1H52z
	 M12,28c-0.6,0-1,0.4-1,1s0.4,1,1,1h2c0.6,0,1-0.4,1-1s-0.4-1-1-1H12z M22,28c-0.6,0-1,0.4-1,1s0.4,1,1,1h1c0.6,0,1-0.4,1-1
	s-0.4-1-1-1H22z M26,28c-0.6,0-1,0.4-1,1s0.4,1,1,1h1c0.6,0,1-0.4,1-1s-0.4-1-1-1H26z M38,28c-0.6,0-1,0.4-1,1s0.4,1,1,1h2
	c0.6,0,1-0.4,1-1s-0.4-1-1-1H38z M52,28c-0.6,0-1,0.4-1,1s0.4,1,1,1h1c0.6,0,1-0.4,1-1s-0.4-1-1-1H52z M12,34c-0.6,0-1,0.4-1,1
	s0.4,1,1,1h4c0.6,0,1-0.4,1-1s-0.4-1-1-1H12z M22,34c-0.6,0-1,0.4-1,1s0.4,1,1,1h1c0.6,0,1-0.4,1-1s-0.4-1-1-1H22z M26,34
	c-0.6,0-1,0.4-1,1s0.4,1,1,1h1c0.6,0,1-0.4,1-1s-0.4-1-1-1H26z M12,38c-0.6,0-1,0.4-1,1s0.4,1,1,1h2c0.6,0,1-0.4,1-1s-0.4-1-1-1H12z
	 M26,38c-0.6,0-1,0.4-1,1s0.4,1,1,1h1c0.6,0,1-0.4,1-1s-0.4-1-1-1H26z"/>
</svg>
