<?xml version="1.0" encoding="utf-8"?>
<!-- Generator: Adobe Illustrator 27.3.1, SVG Export Plug-In . SVG Version: 6.00 Build 0)  -->
<svg version="1.1" id="Livello_1" xmlns="http://www.w3.org/2000/svg" xmlns:xlink="http://www.w3.org/1999/xlink" x="0px" y="0px"
	 viewBox="0 0 64 64" style="enable-background:new 0 0 64 64;" xml:space="preserve">
<g id="cone">
</g>
<g>
	<path d="M11.9,44h-2c-0.5,0-1,0.5-1,1s0.5,1,1,1h2c0.5,0,1-0.5,1-1S12.4,44,11.9,44z M11.9,39h-2c-0.5,0-1,0.5-1,1s0.5,1,1,1h2
		c0.5,0,1-0.5,1-1S12.4,39,11.9,39z M11.9,34h-2c-0.5,0-1,0.5-1,1s0.5,1,1,1h2c0.5,0,1-0.5,1-1S12.4,34,11.9,34z M11.9,29h-2
		c-0.5,0-1,0.5-1,1s0.5,1,1,1h2c0.5,0,1-0.5,1-1S12.4,29,11.9,29z M11.9,24h-2c-0.5,0-1,0.5-1,1s0.5,1,1,1h2c0.5,0,1-0.5,1-1
		S12.4,24,11.9,24z M11.9,19h-2c-0.5,0-1,0.5-1,1s0.5,1,1,1h2c0.5,0,1-0.5,1-1S12.4,19,11.9,19z M11.9,14h-2c-0.5,0-1,0.5-1,1
		s0.5,1,1,1h2c0.5,0,1-0.5,1-1S12.4,14,11.9,14z M11.9,9h-2c-0.5,0-1,0.5-1,1s0.5,1,1,1h2c0.5,0,1-0.5,1-1S12.4,9,11.9,9z M11.9,9
		h-2c-0.5,0-1,0.5-1,1s0.5,1,1,1h2c0.5,0,1-0.5,1-1S12.4,9,11.9,9z M11.9,14h-2c-0.5,0-1,0.5-1,1s0.5,1,1,1h2c0.5,0,1-0.5,1-1
		S12.4,14,11.9,14z M11.9,19h-2c-0.5,0-1,0.5-1,1s0.5,1,1,1h2c0.5,0,1-0.5,1-1S12.4,19,11.9,19z M11.9,24h-2c-0.5,0-1,0.5-1,1
		s0.5,1,1,1h2c0.5,0,1-0.5,1-1S12.4,24,11.9,24z M11.9,29h-2c-0.5,0-1,0.5-1,1s0.5,1,1,1h2c0.5,0,1-0.5,1-1S12.4,29,11.9,29z
		 M11.9,34h-2c-0.5,0-1,0.5-1,1s0.5,1,1,1h2c0.5,0,1-0.5,1-1S12.4,34,11.9,34z M11.9,39h-2c-0.5,0-1,0.5-1,1s0.5,1,1,1h2
		c0.5,0,1-0.5,1-1S12.4,39,11.9,39z M11.9,44h-2c-0.5,0-1,0.5-1,1s0.5,1,1,1h2c0.5,0,1-0.5,1-1S12.4,44,11.9,44z M11.9,44h-2
		c-0.5,0-1,0.5-1,1s0.5,1,1,1h2c0.5,0,1-0.5,1-1S12.4,44,11.9,44z M11.9,39h-2c-0.5,0-1,0.5-1,1s0.5,1,1,1h2c0.5,0,1-0.5,1-1
		S12.4,39,11.9,39z M11.9,34h-2c-0.5,0-1,0.5-1,1s0.5,1,1,1h2c0.5,0,1-0.5,1-1S12.4,34,11.9,34z M11.9,29h-2c-0.5,0-1,0.5-1,1
		s0.5,1,1,1h2c0.5,0,1-0.5,1-1S12.4,29,11.9,29z M11.9,24h-2c-0.5,0-1,0.5-1,1s0.5,1,1,1h2c0.5,0,1-0.5,1-1S12.4,24,11.9,24z
		 M11.9,19h-2c-0.5,0-1,0.5-1,1s0.5,1,1,1h2c0.5,0,1-0.5,1-1S12.4,19,11.9,19z M11.9,14h-2c-0.5,0-1,0.5-1,1s0.5,1,1,1h2
		c0.5,0,1-0.5,1-1S12.4,14,11.9,14z M11.9,9h-2c-0.5,0-1,0.5-1,1s0.5,1,1,1h2c0.5,0,1-0.5,1-1S12.4,9,11.9,9z M11.9,9h-2
		c-0.5,0-1,0.5-1,1s0.5,1,1,1h2c0.5,0,1-0.5,1-1S12.4,9,11.9,9z M11.9,14h-2c-0.5,0-1,0.5-1,1s0.5,1,1,1h2c0.5,0,1-0.5,1-1
		S12.4,14,11.9,14z M11.9,19h-2c-0.5,0-1,0.5-1,1s0.5,1,1,1h2c0.5,0,1-0.5,1-1S12.4,19,11.9,19z M11.9,24h-2c-0.5,0-1,0.5-1,1
		s0.5,1,1,1h2c0.5,0,1-0.5,1-1S12.4,24,11.9,24z M11.9,29h-2c-0.5,0-1,0.5-1,1s0.5,1,1,1h2c0.5,0,1-0.5,1-1S12.4,29,11.9,29z
		 M11.9,34h-2c-0.5,0-1,0.5-1,1s0.5,1,1,1h2c0.5,0,1-0.5,1-1S12.4,34,11.9,34z M11.9,39h-2c-0.5,0-1,0.5-1,1s0.5,1,1,1h2
		c0.5,0,1-0.5,1-1S12.4,39,11.9,39z M11.9,44h-2c-0.5,0-1,0.5-1,1s0.5,1,1,1h2c0.5,0,1-0.5,1-1S12.4,44,11.9,44z M11.9,44h-2
		c-0.5,0-1,0.5-1,1s0.5,1,1,1h2c0.5,0,1-0.5,1-1S12.4,44,11.9,44z M11.9,39h-2c-0.5,0-1,0.5-1,1s0.5,1,1,1h2c0.5,0,1-0.5,1-1
		S12.4,39,11.9,39z M11.9,34h-2c-0.5,0-1,0.5-1,1s0.5,1,1,1h2c0.5,0,1-0.5,1-1S12.4,34,11.9,34z M11.9,29h-2c-0.5,0-1,0.5-1,1
		s0.5,1,1,1h2c0.5,0,1-0.5,1-1S12.4,29,11.9,29z M11.9,24h-2c-0.5,0-1,0.5-1,1s0.5,1,1,1h2c0.5,0,1-0.5,1-1S12.4,24,11.9,24z
		 M11.9,19h-2c-0.5,0-1,0.5-1,1s0.5,1,1,1h2c0.5,0,1-0.5,1-1S12.4,19,11.9,19z M11.9,14h-2c-0.5,0-1,0.5-1,1s0.5,1,1,1h2
		c0.5,0,1-0.5,1-1S12.4,14,11.9,14z M11.9,9h-2c-0.5,0-1,0.5-1,1s0.5,1,1,1h2c0.5,0,1-0.5,1-1S12.4,9,11.9,9z M9.9,11h2
		c0.5,0,1-0.5,1-1s-0.5-1-1-1h-2c-0.5,0-1,0.5-1,1S9.4,11,9.9,11z M11.9,14h-2c-0.5,0-1,0.5-1,1s0.5,1,1,1h2c0.5,0,1-0.5,1-1
		S12.4,14,11.9,14z M11.9,19h-2c-0.5,0-1,0.5-1,1s0.5,1,1,1h2c0.5,0,1-0.5,1-1S12.4,19,11.9,19z M11.9,24h-2c-0.5,0-1,0.5-1,1
		s0.5,1,1,1h2c0.5,0,1-0.5,1-1S12.4,24,11.9,24z M11.9,29h-2c-0.5,0-1,0.5-1,1s0.5,1,1,1h2c0.5,0,1-0.5,1-1S12.4,29,11.9,29z
		 M11.9,34h-2c-0.5,0-1,0.5-1,1s0.5,1,1,1h2c0.5,0,1-0.5,1-1S12.4,34,11.9,34z M11.9,39h-2c-0.5,0-1,0.5-1,1s0.5,1,1,1h2
		c0.5,0,1-0.5,1-1S12.4,39,11.9,39z M11.9,44h-2c-0.5,0-1,0.5-1,1s0.5,1,1,1h2c0.5,0,1-0.5,1-1S12.4,44,11.9,44z M11.9,9h-2
		c-0.5,0-1,0.5-1,1s0.5,1,1,1h2c0.5,0,1-0.5,1-1S12.4,9,11.9,9z M11.9,14h-2c-0.5,0-1,0.5-1,1s0.5,1,1,1h2c0.5,0,1-0.5,1-1
		S12.4,14,11.9,14z M11.9,19h-2c-0.5,0-1,0.5-1,1s0.5,1,1,1h2c0.5,0,1-0.5,1-1S12.4,19,11.9,19z M11.9,24h-2c-0.5,0-1,0.5-1,1
		s0.5,1,1,1h2c0.5,0,1-0.5,1-1S12.4,24,11.9,24z M11.9,29h-2c-0.5,0-1,0.5-1,1s0.5,1,1,1h2c0.5,0,1-0.5,1-1S12.4,29,11.9,29z
		 M11.9,34h-2c-0.5,0-1,0.5-1,1s0.5,1,1,1h2c0.5,0,1-0.5,1-1S12.4,34,11.9,34z M11.9,39h-2c-0.5,0-1,0.5-1,1s0.5,1,1,1h2
		c0.5,0,1-0.5,1-1S12.4,39,11.9,39z M11.9,44h-2c-0.5,0-1,0.5-1,1s0.5,1,1,1h2c0.5,0,1-0.5,1-1S12.4,44,11.9,44z M11.9,44h-2
		c-0.5,0-1,0.5-1,1s0.5,1,1,1h2c0.5,0,1-0.5,1-1S12.4,44,11.9,44z M11.9,39h-2c-0.5,0-1,0.5-1,1s0.5,1,1,1h2c0.5,0,1-0.5,1-1
		S12.4,39,11.9,39z M11.9,34h-2c-0.5,0-1,0.5-1,1s0.5,1,1,1h2c0.5,0,1-0.5,1-1S12.4,34,11.9,34z M11.9,29h-2c-0.5,0-1,0.5-1,1
		s0.5,1,1,1h2c0.5,0,1-0.5,1-1S12.4,29,11.9,29z M11.9,24h-2c-0.5,0-1,0.5-1,1s0.5,1,1,1h2c0.5,0,1-0.5,1-1S12.4,24,11.9,24z
		 M11.9,19h-2c-0.5,0-1,0.5-1,1s0.5,1,1,1h2c0.5,0,1-0.5,1-1S12.4,19,11.9,19z M11.9,14h-2c-0.5,0-1,0.5-1,1s0.5,1,1,1h2
		c0.5,0,1-0.5,1-1S12.4,14,11.9,14z M11.9,9h-2c-0.5,0-1,0.5-1,1s0.5,1,1,1h2c0.5,0,1-0.5,1-1S12.4,9,11.9,9z M11.9,9h-2
		c-0.5,0-1,0.5-1,1s0.5,1,1,1h2c0.5,0,1-0.5,1-1S12.4,9,11.9,9z M11.9,14h-2c-0.5,0-1,0.5-1,1s0.5,1,1,1h2c0.5,0,1-0.5,1-1
		S12.4,14,11.9,14z M11.9,19h-2c-0.5,0-1,0.5-1,1s0.5,1,1,1h2c0.5,0,1-0.5,1-1S12.4,19,11.9,19z M11.9,24h-2c-0.5,0-1,0.5-1,1
		s0.5,1,1,1h2c0.5,0,1-0.5,1-1S12.4,24,11.9,24z M11.9,29h-2c-0.5,0-1,0.5-1,1s0.5,1,1,1h2c0.5,0,1-0.5,1-1S12.4,29,11.9,29z
		 M11.9,34h-2c-0.5,0-1,0.5-1,1s0.5,1,1,1h2c0.5,0,1-0.5,1-1S12.4,34,11.9,34z M11.9,39h-2c-0.5,0-1,0.5-1,1s0.5,1,1,1h2
		c0.5,0,1-0.5,1-1S12.4,39,11.9,39z M11.9,44h-2c-0.5,0-1,0.5-1,1s0.5,1,1,1h2c0.5,0,1-0.5,1-1S12.4,44,11.9,44z M11.9,44h-2
		c-0.5,0-1,0.5-1,1s0.5,1,1,1h2c0.5,0,1-0.5,1-1S12.4,44,11.9,44z M11.9,39h-2c-0.5,0-1,0.5-1,1s0.5,1,1,1h2c0.5,0,1-0.5,1-1
		S12.4,39,11.9,39z M11.9,34h-2c-0.5,0-1,0.5-1,1s0.5,1,1,1h2c0.5,0,1-0.5,1-1S12.4,34,11.9,34z M11.9,29h-2c-0.5,0-1,0.5-1,1
		s0.5,1,1,1h2c0.5,0,1-0.5,1-1S12.4,29,11.9,29z M11.9,24h-2c-0.5,0-1,0.5-1,1s0.5,1,1,1h2c0.5,0,1-0.5,1-1S12.4,24,11.9,24z
		 M11.9,19h-2c-0.5,0-1,0.5-1,1s0.5,1,1,1h2c0.5,0,1-0.5,1-1S12.4,19,11.9,19z M11.9,14h-2c-0.5,0-1,0.5-1,1s0.5,1,1,1h2
		c0.5,0,1-0.5,1-1S12.4,14,11.9,14z M11.9,9h-2c-0.5,0-1,0.5-1,1s0.5,1,1,1h2c0.5,0,1-0.5,1-1S12.4,9,11.9,9z M11.9,9h-2
		c-0.5,0-1,0.5-1,1s0.5,1,1,1h2c0.5,0,1-0.5,1-1S12.4,9,11.9,9z M11.9,14h-2c-0.5,0-1,0.5-1,1s0.5,1,1,1h2c0.5,0,1-0.5,1-1
		S12.4,14,11.9,14z M11.9,19h-2c-0.5,0-1,0.5-1,1s0.5,1,1,1h2c0.5,0,1-0.5,1-1S12.4,19,11.9,19z M11.9,24h-2c-0.5,0-1,0.5-1,1
		s0.5,1,1,1h2c0.5,0,1-0.5,1-1S12.4,24,11.9,24z M11.9,29h-2c-0.5,0-1,0.5-1,1s0.5,1,1,1h2c0.5,0,1-0.5,1-1S12.4,29,11.9,29z
		 M11.9,34h-2c-0.5,0-1,0.5-1,1s0.5,1,1,1h2c0.5,0,1-0.5,1-1S12.4,34,11.9,34z M11.9,39h-2c-0.5,0-1,0.5-1,1s0.5,1,1,1h2
		c0.5,0,1-0.5,1-1S12.4,39,11.9,39z M11.9,44h-2c-0.5,0-1,0.5-1,1s0.5,1,1,1h2c0.5,0,1-0.5,1-1S12.4,44,11.9,44z"/>
	<path d="M5.9,12c0-2.8,2.2-5,5-5s5,2.2,5,5v38.1c-1.3-1.3-3-2.1-5-2.1s-3.7,0.8-5,2.1V12z M50.9,28.3V62c0-1.5-0.5-1-1-1h-39
		c-2.8,0-5-2.2-5-5v-1c0-2.8,2.2-5,5-5s5,2.2,5,5v1c0,0.5,0.5,1,1,1s1-0.5,1-1V18h6.8v-2h-6.8v-4c0-3.9-3.1-7-7-7s-7,3.1-7,7v44
		c0,3.4,2.4,6.2,5.6,6.9l2.4,0.1h38c1.7,0,3-1.3,3-3V28.3H50.9z"/>
	<g id="helmet">
		<path d="M57.7,22.6v-1.8c0-7.8-5.4-14.6-12.9-16.5l-0.2-2.1C44.4,1.4,43.9,1,43.3,1h-5.6c-0.6,0-1.1,0.5-1.1,1.1l-0.2,2.1
			c-7.5,1.9-12.9,8.7-12.9,16.5v1.8c-1.4,0.4-2.5,1.6-2.5,3.2c0,1.8,1.5,3.3,3.3,3.3h32.4c1.8,0,3.3-1.5,3.3-3.3
			C60,24.2,59,22.9,57.7,22.6z M49.4,7.7c0.7,0.5,1.4,1,2,1.6v3.9c0,0.6-0.5,1-1,1c-0.6,0-1-0.5-1-1V7.7z M48.2,6.9v6.3
			c0,1.3,1,2.3,2.3,2.3c1.3,0,2.3-1,2.3-2.3v-2.5c2.3,2.8,3.7,6.3,3.7,10v1.7H46L44.8,5.5C45.9,5.9,47.2,6.3,48.2,6.9z M37.9,2.2
			h5.3l1.6,20.2h-8.4L37.9,2.2z M29.7,9.3c0.6-0.6,1.3-1.1,2-1.6v5.5c0,0.6-0.5,1-1,1c-0.6,0-1-0.5-1-1C29.7,13.2,29.7,9.3,29.7,9.3
			z M28.4,10.7v2.6c0,1.3,1,2.3,2.3,2.3c1.3,0,2.3-1,2.3-2.3V6.9c1.1-0.6,2.2-1.1,3.4-1.4l-1.3,16.9H24.8v-1.7
			C24.8,17,26.1,13.4,28.4,10.7z M56.8,27.7H24.3c-1.1,0-2-0.9-2-2s0.9-2,2-2h32.4c1.1,0,2,0.9,2,2C58.8,26.8,57.9,27.7,56.8,27.7z"
			/>
	</g>
</g>
</svg>
