<?xml version="1.0" encoding="utf-8"?>
<!-- Generator: Adobe Illustrator 27.3.1, SVG Export Plug-In . SVG Version: 6.00 Build 0)  -->
<svg version="1.1" id="Livello_1" xmlns="http://www.w3.org/2000/svg" xmlns:xlink="http://www.w3.org/1999/xlink" x="0px" y="0px"
	 viewBox="0 0 64 64" style="enable-background:new 0 0 64 64;" xml:space="preserve">
<g>
	<g>
		<path d="M19.4,43.4h-2.3c-1.3,0-2.3,1-2.3,2.3V48c0,1.3,1,2.3,2.3,2.3h2.3c1.3,0,2.3-1,2.3-2.3v-2.3
			C21.7,44.5,20.7,43.4,19.4,43.4z M19.4,48h-2.3v-2.3h2.3V48z"/>
	</g>
	<g>
		<path d="M19.4,32h-2.3c-1.3,0-2.3,1-2.3,2.3v2.3c0,1.3,1,2.3,2.3,2.3h2.3c1.3,0,2.3-1,2.3-2.3v-2.3C21.7,33,20.7,32,19.4,32z
			 M19.4,36.6h-2.3v-2.3h2.3V36.6z"/>
	</g>
	<path d="M41.1,25.1h-16c-0.6,0-1.1,0.5-1.1,1.1s0.5,1.1,1.1,1.1h16c0.6,0,1.1-0.5,1.1-1.1C42.3,25.7,41.8,25.1,41.1,25.1z"/>
	<path d="M48,20.6h-4.6c-0.6,0-1.1,0.5-1.1,1.1s0.5,1.1,1.1,1.1H48c0.6,0,1.1-0.5,1.1-1.1C49.1,21.1,48.6,20.6,48,20.6z"/>
	<path d="M38.8,20.6H25.1c-0.6,0-1.1,0.5-1.1,1.1s0.5,1.1,1.1,1.1h13.7c0.6,0,1.1-0.5,1.1-1.1C40,21.1,39.5,20.6,38.8,20.6z"/>
	<g>
		<path d="M41.1,36.6h-16c-0.6,0-1.1,0.5-1.1,1.1s0.5,1.1,1.1,1.1h16c0.6,0,1.1-0.5,1.1-1.1C42.3,37.1,41.8,36.6,41.1,36.6z"/>
		<path d="M48,32h-4.6c-0.6,0-1.1,0.5-1.1,1.1s0.5,1.1,1.1,1.1H48c0.6,0,1.1-0.5,1.1-1.1C49.1,32.5,48.6,32,48,32z"/>
		<path d="M38.8,32H25.1c-0.6,0-1.1,0.5-1.1,1.1s0.5,1.1,1.1,1.1h13.7c0.6,0,1.1-0.5,1.1-1.1C40,32.5,39.5,32,38.8,32z"/>
	</g>
	<g>
		<path d="M41.1,48h-16c-0.6,0-1.1,0.5-1.1,1.1s0.5,1.1,1.1,1.1h16c0.6,0,1.1-0.5,1.1-1.1C42.3,48.5,41.8,48,41.1,48z"/>
		<path d="M48,43.4h-4.6c-0.6,0-1.1,0.5-1.1,1.1s0.5,1.1,1.1,1.1H48c0.6,0,1.1-0.5,1.1-1.1C49.1,43.9,48.6,43.4,48,43.4z"/>
		<path d="M38.8,43.4H25.1c-0.6,0-1.1,0.5-1.1,1.1s0.5,1.1,1.1,1.1h13.7c0.6,0,1.1-0.5,1.1-1.1C40,43.9,39.5,43.4,38.8,43.4z"/>
	</g>
	<g>
		<path d="M19.4,20.6h-2.3c-1.3,0-2.3,1-2.3,2.3v2.3c0,1.3,1,2.3,2.3,2.3h2.3c1.3,0,2.3-1,2.3-2.3v-2.3
			C21.7,21.6,20.7,20.6,19.4,20.6z M19.4,25.1h-2.3v-2.3h2.3V25.1z"/>
	</g>
	<path d="M54.8,0H21.3c-1.5,0-3,0.6-4,1.7l-9.9,9.9c-1.1,1.1-1.7,2.5-1.7,4v45c0,1.9,1.5,3.4,3.4,3.4h45.7c1.9,0,3.4-1.5,3.4-3.4
		V3.4C58.3,1.5,56.7,0,54.8,0z M9,13.2l9.9-9.9c0.2-0.2,0.3-0.3,0.5-0.4v9.7c0,0.6-0.5,1.1-1.1,1.1H8.6C8.7,13.5,8.8,13.3,9,13.2z
		 M56,60.6c0,0.6-0.5,1.1-1.1,1.1H9.1c-0.6,0-1.1-0.5-1.1-1.1V16h10.3c1.9,0,3.4-1.5,3.4-3.4V2.3h33.1c0.6,0,1.1,0.5,1.1,1.1v57.2
		H56z"/>
</g>
</svg>
